<mxfile host="app.diagrams.net" modified="2022-11-14T09:19:13.080Z" agent="5.0 (Windows NT 10.0; Win64; x64) AppleWebKit/537.36 (KHTML, like Gecko) Chrome/106.0.0.0 Safari/537.36" etag="BtsEU4RXxlCVifK5tca4" version="20.5.1" type="github">
  <diagram id="cgUuFQFdSpiGEiJiPskD" name="Pagina-1">
    <mxGraphModel dx="813" dy="658" grid="1" gridSize="10" guides="1" tooltips="1" connect="1" arrows="1" fold="1" page="1" pageScale="1" pageWidth="827" pageHeight="1169" math="0" shadow="0">
      <root>
        <mxCell id="0" />
        <mxCell id="1" parent="0" />
        <mxCell id="hTEOKCXMbIrAF3QXcVuG-1" value="Utente loggato" style="shape=umlActor;verticalLabelPosition=bottom;verticalAlign=top;html=1;outlineConnect=0;" parent="1" vertex="1">
          <mxGeometry x="184" y="20" width="30" height="60" as="geometry" />
        </mxCell>
        <mxCell id="hTEOKCXMbIrAF3QXcVuG-3" value="Utente loggato" style="shape=umlActor;verticalLabelPosition=bottom;verticalAlign=top;html=1;outlineConnect=0;" parent="1" vertex="1">
          <mxGeometry x="1154" y="250" width="30" height="60" as="geometry" />
        </mxCell>
        <mxCell id="hTEOKCXMbIrAF3QXcVuG-6" value="compilare il form preferenze" style="ellipse;whiteSpace=wrap;html=1;" parent="1" vertex="1">
          <mxGeometry x="294" y="10" width="120" height="80" as="geometry" />
        </mxCell>
        <mxCell id="hTEOKCXMbIrAF3QXcVuG-7" value="specificare preferenza visibilità profilo" style="ellipse;whiteSpace=wrap;html=1;" parent="1" vertex="1">
          <mxGeometry x="1270" y="240" width="120" height="80" as="geometry" />
        </mxCell>
        <mxCell id="hTEOKCXMbIrAF3QXcVuG-8" value="RF11 - compilazione form" style="rounded=0;whiteSpace=wrap;html=1;" parent="1" vertex="1">
          <mxGeometry x="10" y="10" width="120" height="60" as="geometry" />
        </mxCell>
        <mxCell id="hTEOKCXMbIrAF3QXcVuG-9" value="RF12 - visibilità profilo" style="rounded=0;whiteSpace=wrap;html=1;" parent="1" vertex="1">
          <mxGeometry x="980" y="240" width="120" height="60" as="geometry" />
        </mxCell>
        <mxCell id="hTEOKCXMbIrAF3QXcVuG-10" value="" style="endArrow=classic;html=1;rounded=0;" parent="1" edge="1">
          <mxGeometry width="50" height="50" relative="1" as="geometry">
            <mxPoint x="1190" y="279.23" as="sourcePoint" />
            <mxPoint x="1270" y="279.23" as="targetPoint" />
          </mxGeometry>
        </mxCell>
        <mxCell id="hTEOKCXMbIrAF3QXcVuG-12" value="" style="endArrow=classic;html=1;rounded=0;" parent="1" edge="1">
          <mxGeometry width="50" height="50" relative="1" as="geometry">
            <mxPoint x="214" y="49.46000000000001" as="sourcePoint" />
            <mxPoint x="294" y="49.46000000000001" as="targetPoint" />
            <Array as="points">
              <mxPoint x="274" y="49.22999999999999" />
            </Array>
          </mxGeometry>
        </mxCell>
        <mxCell id="hTEOKCXMbIrAF3QXcVuG-16" value="" style="endArrow=classic;html=1;rounded=0;dashed=1;" parent="1" edge="1">
          <mxGeometry width="50" height="50" relative="1" as="geometry">
            <mxPoint x="414" y="49.760000000000005" as="sourcePoint" />
            <mxPoint x="490" y="50" as="targetPoint" />
          </mxGeometry>
        </mxCell>
        <mxCell id="hTEOKCXMbIrAF3QXcVuG-17" value="&lt;font style=&quot;font-size: 10px;&quot;&gt;&amp;lt;include&amp;gt;&lt;/font&gt;" style="text;html=1;align=center;verticalAlign=middle;resizable=0;points=[];autosize=1;strokeColor=none;fillColor=none;" parent="1" vertex="1">
          <mxGeometry x="415" y="25" width="70" height="30" as="geometry" />
        </mxCell>
        <mxCell id="hTEOKCXMbIrAF3QXcVuG-18" value="&lt;font style=&quot;font-size: 12px;&quot;&gt;spuntare la casella dedicata per rendere il profilo pubblico&lt;/font&gt;" style="ellipse;whiteSpace=wrap;html=1;fontSize=10;" parent="1" vertex="1">
          <mxGeometry x="1460" y="240" width="120" height="80" as="geometry" />
        </mxCell>
        <mxCell id="hTEOKCXMbIrAF3QXcVuG-19" value="&lt;font style=&quot;font-size: 10px;&quot;&gt;&amp;lt;include&amp;gt;&lt;/font&gt;" style="text;html=1;align=center;verticalAlign=middle;resizable=0;points=[];autosize=1;strokeColor=none;fillColor=none;" parent="1" vertex="1">
          <mxGeometry x="1390" y="250" width="70" height="30" as="geometry" />
        </mxCell>
        <mxCell id="hTEOKCXMbIrAF3QXcVuG-20" value="" style="endArrow=classic;html=1;rounded=0;dashed=1;fontSize=10;entryX=1;entryY=1;entryDx=0;entryDy=0;entryPerimeter=0;" parent="1" target="hTEOKCXMbIrAF3QXcVuG-19" edge="1">
          <mxGeometry width="50" height="50" relative="1" as="geometry">
            <mxPoint x="1390" y="279.2" as="sourcePoint" />
            <mxPoint x="1450" y="279.2" as="targetPoint" />
          </mxGeometry>
        </mxCell>
        <mxCell id="hTEOKCXMbIrAF3QXcVuG-21" value="&lt;span style=&quot;font-size: 12px;&quot;&gt;cliccare sulla propria immagine profilo nella navbar&lt;/span&gt;" style="ellipse;whiteSpace=wrap;html=1;fontSize=10;" parent="1" vertex="1">
          <mxGeometry x="490" y="10" width="130" height="80" as="geometry" />
        </mxCell>
        <mxCell id="hTEOKCXMbIrAF3QXcVuG-22" value="RF14 - lista visti" style="rounded=0;whiteSpace=wrap;html=1;fontSize=12;" parent="1" vertex="1">
          <mxGeometry x="20" y="260" width="120" height="60" as="geometry" />
        </mxCell>
        <mxCell id="hTEOKCXMbIrAF3QXcVuG-23" value="Utente loggato" style="shape=umlActor;verticalLabelPosition=bottom;verticalAlign=top;html=1;outlineConnect=0;" parent="1" vertex="1">
          <mxGeometry x="194" y="250" width="30" height="60" as="geometry" />
        </mxCell>
        <mxCell id="hTEOKCXMbIrAF3QXcVuG-24" value="creazione lista contenuti visti" style="ellipse;whiteSpace=wrap;html=1;" parent="1" vertex="1">
          <mxGeometry x="310" y="240" width="120" height="80" as="geometry" />
        </mxCell>
        <mxCell id="hTEOKCXMbIrAF3QXcVuG-25" value="" style="endArrow=classic;html=1;rounded=0;" parent="1" edge="1">
          <mxGeometry width="50" height="50" relative="1" as="geometry">
            <mxPoint x="230" y="279.23" as="sourcePoint" />
            <mxPoint x="310" y="279.23" as="targetPoint" />
          </mxGeometry>
        </mxCell>
        <mxCell id="hTEOKCXMbIrAF3QXcVuG-26" value="&lt;span style=&quot;font-size: 12px;&quot;&gt;aggiungere titolo alla lista&lt;/span&gt;" style="ellipse;whiteSpace=wrap;html=1;fontSize=10;" parent="1" vertex="1">
          <mxGeometry x="500" y="240" width="120" height="80" as="geometry" />
        </mxCell>
        <mxCell id="hTEOKCXMbIrAF3QXcVuG-27" value="&lt;font style=&quot;font-size: 10px;&quot;&gt;&amp;lt;include&amp;gt;&lt;/font&gt;" style="text;html=1;align=center;verticalAlign=middle;resizable=0;points=[];autosize=1;strokeColor=none;fillColor=none;" parent="1" vertex="1">
          <mxGeometry x="430" y="250" width="70" height="30" as="geometry" />
        </mxCell>
        <mxCell id="hTEOKCXMbIrAF3QXcVuG-28" value="" style="endArrow=classic;html=1;rounded=0;dashed=1;fontSize=10;entryX=1;entryY=1;entryDx=0;entryDy=0;entryPerimeter=0;" parent="1" target="hTEOKCXMbIrAF3QXcVuG-27" edge="1">
          <mxGeometry width="50" height="50" relative="1" as="geometry">
            <mxPoint x="430" y="279.20000000000005" as="sourcePoint" />
            <mxPoint x="490" y="279.2" as="targetPoint" />
          </mxGeometry>
        </mxCell>
        <mxCell id="hTEOKCXMbIrAF3QXcVuG-29" value="" style="endArrow=classic;html=1;rounded=0;dashed=1;fontSize=12;" parent="1" edge="1">
          <mxGeometry width="50" height="50" relative="1" as="geometry">
            <mxPoint x="710" y="280" as="sourcePoint" />
            <mxPoint x="620" y="280" as="targetPoint" />
          </mxGeometry>
        </mxCell>
        <mxCell id="hTEOKCXMbIrAF3QXcVuG-30" value="" style="endArrow=classic;html=1;rounded=0;dashed=1;fontSize=12;entryX=0.589;entryY=1.01;entryDx=0;entryDy=0;entryPerimeter=0;" parent="1" target="hTEOKCXMbIrAF3QXcVuG-26" edge="1">
          <mxGeometry width="50" height="50" relative="1" as="geometry">
            <mxPoint x="710" y="370" as="sourcePoint" />
            <mxPoint x="580" y="330" as="targetPoint" />
            <Array as="points">
              <mxPoint x="570" y="370" />
            </Array>
          </mxGeometry>
        </mxCell>
        <mxCell id="hTEOKCXMbIrAF3QXcVuG-31" value="Se si è nella pagina del titolo specifico, tramite tasto apposito" style="ellipse;whiteSpace=wrap;html=1;fontSize=12;" parent="1" vertex="1">
          <mxGeometry x="710" y="230" width="140" height="90" as="geometry" />
        </mxCell>
        <mxCell id="hTEOKCXMbIrAF3QXcVuG-32" value="Se si è nella pagina della lista, tramite il simbolo &quot;+&quot;" style="ellipse;whiteSpace=wrap;html=1;fontSize=12;" parent="1" vertex="1">
          <mxGeometry x="710" y="331" width="150" height="80" as="geometry" />
        </mxCell>
        <mxCell id="hTEOKCXMbIrAF3QXcVuG-33" value="&amp;lt;extends&amp;gt;" style="text;html=1;align=center;verticalAlign=middle;resizable=0;points=[];autosize=1;strokeColor=none;fillColor=none;fontSize=12;" parent="1" vertex="1">
          <mxGeometry x="630" y="255" width="80" height="30" as="geometry" />
        </mxCell>
        <mxCell id="hTEOKCXMbIrAF3QXcVuG-34" value="&lt;span style=&quot;color: rgb(0, 0, 0); font-family: Helvetica; font-size: 12px; font-style: normal; font-variant-ligatures: normal; font-variant-caps: normal; font-weight: 400; letter-spacing: normal; orphans: 2; text-align: center; text-indent: 0px; text-transform: none; widows: 2; word-spacing: 0px; -webkit-text-stroke-width: 0px; background-color: rgb(248, 249, 250); text-decoration-thickness: initial; text-decoration-style: initial; text-decoration-color: initial; float: none; display: inline !important;&quot;&gt;&amp;lt;extends&amp;gt;&lt;/span&gt;" style="text;whiteSpace=wrap;html=1;fontSize=12;" parent="1" vertex="1">
          <mxGeometry x="610" y="340" width="90" height="40" as="geometry" />
        </mxCell>
        <mxCell id="hTEOKCXMbIrAF3QXcVuG-35" value="RF15 - lista futura" style="rounded=0;whiteSpace=wrap;html=1;fontSize=12;" parent="1" vertex="1">
          <mxGeometry x="20" y="495" width="120" height="60" as="geometry" />
        </mxCell>
        <mxCell id="hTEOKCXMbIrAF3QXcVuG-36" value="Utente loggato" style="shape=umlActor;verticalLabelPosition=bottom;verticalAlign=top;html=1;outlineConnect=0;" parent="1" vertex="1">
          <mxGeometry x="194" y="485" width="30" height="60" as="geometry" />
        </mxCell>
        <mxCell id="hTEOKCXMbIrAF3QXcVuG-37" value="" style="endArrow=classic;html=1;rounded=0;" parent="1" edge="1">
          <mxGeometry width="50" height="50" relative="1" as="geometry">
            <mxPoint x="230" y="514.23" as="sourcePoint" />
            <mxPoint x="310" y="514.23" as="targetPoint" />
          </mxGeometry>
        </mxCell>
        <mxCell id="hTEOKCXMbIrAF3QXcVuG-38" value="&lt;font style=&quot;font-size: 10px;&quot;&gt;&amp;lt;include&amp;gt;&lt;/font&gt;" style="text;html=1;align=center;verticalAlign=middle;resizable=0;points=[];autosize=1;strokeColor=none;fillColor=none;" parent="1" vertex="1">
          <mxGeometry x="430" y="485" width="70" height="30" as="geometry" />
        </mxCell>
        <mxCell id="hTEOKCXMbIrAF3QXcVuG-39" value="" style="endArrow=classic;html=1;rounded=0;dashed=1;fontSize=10;entryX=1;entryY=1;entryDx=0;entryDy=0;entryPerimeter=0;" parent="1" target="hTEOKCXMbIrAF3QXcVuG-38" edge="1">
          <mxGeometry width="50" height="50" relative="1" as="geometry">
            <mxPoint x="430" y="514.2" as="sourcePoint" />
            <mxPoint x="490" y="514.2" as="targetPoint" />
          </mxGeometry>
        </mxCell>
        <mxCell id="hTEOKCXMbIrAF3QXcVuG-40" value="" style="endArrow=classic;html=1;rounded=0;dashed=1;fontSize=12;" parent="1" edge="1">
          <mxGeometry width="50" height="50" relative="1" as="geometry">
            <mxPoint x="710.0000000000002" y="515" as="sourcePoint" />
            <mxPoint x="620.0000000000002" y="515" as="targetPoint" />
          </mxGeometry>
        </mxCell>
        <mxCell id="hTEOKCXMbIrAF3QXcVuG-41" value="" style="endArrow=classic;html=1;rounded=0;dashed=1;fontSize=12;entryX=0.589;entryY=1.01;entryDx=0;entryDy=0;entryPerimeter=0;" parent="1" edge="1">
          <mxGeometry width="50" height="50" relative="1" as="geometry">
            <mxPoint x="710.0000000000002" y="605" as="sourcePoint" />
            <mxPoint x="570.6800000000001" y="555.8" as="targetPoint" />
            <Array as="points">
              <mxPoint x="570" y="605" />
            </Array>
          </mxGeometry>
        </mxCell>
        <mxCell id="hTEOKCXMbIrAF3QXcVuG-42" value="Se si è nella pagina della lista, tramite il simbolo &quot;+&quot;" style="ellipse;whiteSpace=wrap;html=1;fontSize=12;" parent="1" vertex="1">
          <mxGeometry x="710" y="564" width="150" height="80" as="geometry" />
        </mxCell>
        <mxCell id="hTEOKCXMbIrAF3QXcVuG-43" value="&amp;lt;extends&amp;gt;" style="text;html=1;align=center;verticalAlign=middle;resizable=0;points=[];autosize=1;strokeColor=none;fillColor=none;fontSize=12;" parent="1" vertex="1">
          <mxGeometry x="630" y="490" width="80" height="30" as="geometry" />
        </mxCell>
        <mxCell id="hTEOKCXMbIrAF3QXcVuG-44" value="&lt;span style=&quot;color: rgb(0, 0, 0); font-family: Helvetica; font-size: 12px; font-style: normal; font-variant-ligatures: normal; font-variant-caps: normal; font-weight: 400; letter-spacing: normal; orphans: 2; text-align: center; text-indent: 0px; text-transform: none; widows: 2; word-spacing: 0px; -webkit-text-stroke-width: 0px; background-color: rgb(248, 249, 250); text-decoration-thickness: initial; text-decoration-style: initial; text-decoration-color: initial; float: none; display: inline !important;&quot;&gt;&amp;lt;extends&amp;gt;&lt;/span&gt;" style="text;whiteSpace=wrap;html=1;fontSize=12;" parent="1" vertex="1">
          <mxGeometry x="610" y="575" width="90" height="40" as="geometry" />
        </mxCell>
        <mxCell id="hTEOKCXMbIrAF3QXcVuG-45" value="creazione lista contenuti da vedere in futuro" style="ellipse;whiteSpace=wrap;html=1;" parent="1" vertex="1">
          <mxGeometry x="310" y="476" width="120" height="80" as="geometry" />
        </mxCell>
        <mxCell id="hTEOKCXMbIrAF3QXcVuG-46" value="&lt;span style=&quot;font-size: 12px;&quot;&gt;aggiungere titolo alla lista&lt;/span&gt;" style="ellipse;whiteSpace=wrap;html=1;fontSize=10;" parent="1" vertex="1">
          <mxGeometry x="500" y="475" width="120" height="80" as="geometry" />
        </mxCell>
        <mxCell id="hTEOKCXMbIrAF3QXcVuG-47" value="Se si è nella pagina del titolo specifico, tramite tasto apposito" style="ellipse;whiteSpace=wrap;html=1;fontSize=12;" parent="1" vertex="1">
          <mxGeometry x="710" y="470" width="140" height="90" as="geometry" />
        </mxCell>
        <mxCell id="hTEOKCXMbIrAF3QXcVuG-48" value="Utente loggato" style="shape=umlActor;verticalLabelPosition=bottom;verticalAlign=top;html=1;outlineConnect=0;" parent="1" vertex="1">
          <mxGeometry x="197" y="720" width="30" height="60" as="geometry" />
        </mxCell>
        <mxCell id="hTEOKCXMbIrAF3QXcVuG-49" value="" style="endArrow=classic;html=1;rounded=0;" parent="1" edge="1">
          <mxGeometry width="50" height="50" relative="1" as="geometry">
            <mxPoint x="233" y="749.23" as="sourcePoint" />
            <mxPoint x="313" y="749.23" as="targetPoint" />
          </mxGeometry>
        </mxCell>
        <mxCell id="hTEOKCXMbIrAF3QXcVuG-50" value="&lt;font style=&quot;font-size: 10px;&quot;&gt;&amp;lt;include&amp;gt;&lt;/font&gt;" style="text;html=1;align=center;verticalAlign=middle;resizable=0;points=[];autosize=1;strokeColor=none;fillColor=none;" parent="1" vertex="1">
          <mxGeometry x="433" y="720" width="70" height="30" as="geometry" />
        </mxCell>
        <mxCell id="hTEOKCXMbIrAF3QXcVuG-51" value="" style="endArrow=classic;html=1;rounded=0;dashed=1;fontSize=10;entryX=1;entryY=1;entryDx=0;entryDy=0;entryPerimeter=0;" parent="1" target="hTEOKCXMbIrAF3QXcVuG-50" edge="1">
          <mxGeometry width="50" height="50" relative="1" as="geometry">
            <mxPoint x="433" y="749.2" as="sourcePoint" />
            <mxPoint x="493" y="749.2" as="targetPoint" />
          </mxGeometry>
        </mxCell>
        <mxCell id="hTEOKCXMbIrAF3QXcVuG-57" value="creazione della propria top10 personale" style="ellipse;whiteSpace=wrap;html=1;" parent="1" vertex="1">
          <mxGeometry x="313" y="711" width="120" height="80" as="geometry" />
        </mxCell>
        <mxCell id="hTEOKCXMbIrAF3QXcVuG-58" value="&lt;span style=&quot;font-size: 12px;&quot;&gt;aggiungere titolo alla lista, tramite il simbolo &quot;+&quot;&lt;/span&gt;" style="ellipse;whiteSpace=wrap;html=1;fontSize=10;" parent="1" vertex="1">
          <mxGeometry x="503" y="710" width="134" height="80" as="geometry" />
        </mxCell>
        <mxCell id="hTEOKCXMbIrAF3QXcVuG-60" value="RF17 - top10" style="rounded=0;whiteSpace=wrap;html=1;fontSize=12;" parent="1" vertex="1">
          <mxGeometry x="27" y="739" width="120" height="60" as="geometry" />
        </mxCell>
        <mxCell id="hTEOKCXMbIrAF3QXcVuG-62" value="RF18 - inviare amicizia" style="rounded=0;whiteSpace=wrap;html=1;fontSize=12;" parent="1" vertex="1">
          <mxGeometry x="27" y="989" width="120" height="60" as="geometry" />
        </mxCell>
        <mxCell id="hTEOKCXMbIrAF3QXcVuG-63" value="Utente loggato" style="shape=umlActor;verticalLabelPosition=bottom;verticalAlign=top;html=1;outlineConnect=0;" parent="1" vertex="1">
          <mxGeometry x="201" y="979" width="30" height="60" as="geometry" />
        </mxCell>
        <mxCell id="hTEOKCXMbIrAF3QXcVuG-64" value="" style="endArrow=classic;html=1;rounded=0;" parent="1" edge="1">
          <mxGeometry width="50" height="50" relative="1" as="geometry">
            <mxPoint x="237" y="1008.23" as="sourcePoint" />
            <mxPoint x="317" y="1008.23" as="targetPoint" />
          </mxGeometry>
        </mxCell>
        <mxCell id="hTEOKCXMbIrAF3QXcVuG-72" value="inviare richiesta di amicizia, tramite apposito tasto nella pagina profilo" style="ellipse;whiteSpace=wrap;html=1;" parent="1" vertex="1">
          <mxGeometry x="317" y="970" width="130" height="80" as="geometry" />
        </mxCell>
        <mxCell id="w7c0RXvmwf8TLFWMbkS8-1" value="&lt;font style=&quot;font-size: 10px;&quot;&gt;&amp;lt;include&amp;gt;&lt;/font&gt;" style="text;html=1;align=center;verticalAlign=middle;resizable=0;points=[];autosize=1;strokeColor=none;fillColor=none;" parent="1" vertex="1">
          <mxGeometry x="860" y="574" width="70" height="30" as="geometry" />
        </mxCell>
        <mxCell id="w7c0RXvmwf8TLFWMbkS8-2" value="" style="endArrow=classic;html=1;rounded=0;dashed=1;fontSize=10;entryX=1;entryY=1;entryDx=0;entryDy=0;entryPerimeter=0;" parent="1" target="w7c0RXvmwf8TLFWMbkS8-1" edge="1">
          <mxGeometry width="50" height="50" relative="1" as="geometry">
            <mxPoint x="860" y="603.2" as="sourcePoint" />
            <mxPoint x="920" y="603.2" as="targetPoint" />
          </mxGeometry>
        </mxCell>
        <mxCell id="w7c0RXvmwf8TLFWMbkS8-3" value="&lt;span style=&quot;font-size: 11px;&quot;&gt;[RF2] cercare un titolo (per nome o regista)&lt;/span&gt;" style="ellipse;whiteSpace=wrap;html=1;fontSize=10;" parent="1" vertex="1">
          <mxGeometry x="930" y="564" width="120" height="80" as="geometry" />
        </mxCell>
        <mxCell id="w7c0RXvmwf8TLFWMbkS8-4" value="&lt;font style=&quot;font-size: 10px;&quot;&gt;&amp;lt;include&amp;gt;&lt;/font&gt;" style="text;html=1;align=center;verticalAlign=middle;resizable=0;points=[];autosize=1;strokeColor=none;fillColor=none;" parent="1" vertex="1">
          <mxGeometry x="860" y="341" width="70" height="30" as="geometry" />
        </mxCell>
        <mxCell id="w7c0RXvmwf8TLFWMbkS8-5" value="" style="endArrow=classic;html=1;rounded=0;dashed=1;fontSize=10;entryX=1;entryY=1;entryDx=0;entryDy=0;entryPerimeter=0;" parent="1" target="w7c0RXvmwf8TLFWMbkS8-4" edge="1">
          <mxGeometry width="50" height="50" relative="1" as="geometry">
            <mxPoint x="860" y="370.20000000000005" as="sourcePoint" />
            <mxPoint x="920" y="370.20000000000005" as="targetPoint" />
          </mxGeometry>
        </mxCell>
        <mxCell id="w7c0RXvmwf8TLFWMbkS8-6" value="&lt;span style=&quot;font-size: 11px;&quot;&gt;[RF2] cercare un titolo (per nome o regista)&lt;/span&gt;" style="ellipse;whiteSpace=wrap;html=1;fontSize=10;" parent="1" vertex="1">
          <mxGeometry x="930" y="331" width="120" height="80" as="geometry" />
        </mxCell>
        <mxCell id="w7c0RXvmwf8TLFWMbkS8-7" value="&lt;font style=&quot;font-size: 10px;&quot;&gt;&amp;lt;include&amp;gt;&lt;/font&gt;" style="text;html=1;align=center;verticalAlign=middle;resizable=0;points=[];autosize=1;strokeColor=none;fillColor=none;" parent="1" vertex="1">
          <mxGeometry x="637" y="720" width="70" height="30" as="geometry" />
        </mxCell>
        <mxCell id="w7c0RXvmwf8TLFWMbkS8-8" value="" style="endArrow=classic;html=1;rounded=0;dashed=1;fontSize=10;entryX=1;entryY=1;entryDx=0;entryDy=0;entryPerimeter=0;" parent="1" target="w7c0RXvmwf8TLFWMbkS8-7" edge="1">
          <mxGeometry width="50" height="50" relative="1" as="geometry">
            <mxPoint x="637" y="749.2" as="sourcePoint" />
            <mxPoint x="697" y="749.2" as="targetPoint" />
          </mxGeometry>
        </mxCell>
        <mxCell id="w7c0RXvmwf8TLFWMbkS8-9" value="&lt;span style=&quot;font-size: 11px;&quot;&gt;[RF2] cercare un titolo (per nome o regista)&lt;/span&gt;" style="ellipse;whiteSpace=wrap;html=1;fontSize=10;" parent="1" vertex="1">
          <mxGeometry x="707" y="710" width="120" height="80" as="geometry" />
        </mxCell>
        <mxCell id="w7c0RXvmwf8TLFWMbkS8-10" value="MongoDB" style="shape=umlActor;verticalLabelPosition=bottom;verticalAlign=top;html=1;outlineConnect=0;fontSize=11;" parent="1" vertex="1">
          <mxGeometry x="339" y="140" width="30" height="60" as="geometry" />
        </mxCell>
        <mxCell id="w7c0RXvmwf8TLFWMbkS8-11" value="" style="endArrow=classic;html=1;rounded=0;fontSize=11;entryX=0.5;entryY=1;entryDx=0;entryDy=0;exitX=0.5;exitY=0;exitDx=0;exitDy=0;exitPerimeter=0;" parent="1" source="w7c0RXvmwf8TLFWMbkS8-10" edge="1">
          <mxGeometry width="50" height="50" relative="1" as="geometry">
            <mxPoint x="328" y="180" as="sourcePoint" />
            <mxPoint x="354" y="90" as="targetPoint" />
          </mxGeometry>
        </mxCell>
        <mxCell id="w7c0RXvmwf8TLFWMbkS8-12" value="MongoDB" style="shape=umlActor;verticalLabelPosition=bottom;verticalAlign=top;html=1;outlineConnect=0;fontSize=11;" parent="1" vertex="1">
          <mxGeometry x="1315" y="370" width="30" height="60" as="geometry" />
        </mxCell>
        <mxCell id="w7c0RXvmwf8TLFWMbkS8-13" value="" style="endArrow=classic;html=1;rounded=0;fontSize=11;entryX=0.5;entryY=1;entryDx=0;entryDy=0;exitX=0.5;exitY=0;exitDx=0;exitDy=0;exitPerimeter=0;" parent="1" source="w7c0RXvmwf8TLFWMbkS8-12" edge="1">
          <mxGeometry width="50" height="50" relative="1" as="geometry">
            <mxPoint x="1304" y="410" as="sourcePoint" />
            <mxPoint x="1330" y="320" as="targetPoint" />
          </mxGeometry>
        </mxCell>
        <mxCell id="w7c0RXvmwf8TLFWMbkS8-14" value="MongoDB" style="shape=umlActor;verticalLabelPosition=bottom;verticalAlign=top;html=1;outlineConnect=0;fontSize=11;" parent="1" vertex="1">
          <mxGeometry x="355" y="370" width="30" height="60" as="geometry" />
        </mxCell>
        <mxCell id="w7c0RXvmwf8TLFWMbkS8-15" value="" style="endArrow=classic;html=1;rounded=0;fontSize=11;entryX=0.5;entryY=1;entryDx=0;entryDy=0;exitX=0.5;exitY=0;exitDx=0;exitDy=0;exitPerimeter=0;" parent="1" source="w7c0RXvmwf8TLFWMbkS8-14" edge="1">
          <mxGeometry width="50" height="50" relative="1" as="geometry">
            <mxPoint x="344" y="410" as="sourcePoint" />
            <mxPoint x="370" y="320" as="targetPoint" />
          </mxGeometry>
        </mxCell>
        <mxCell id="w7c0RXvmwf8TLFWMbkS8-16" value="MongoDB" style="shape=umlActor;verticalLabelPosition=bottom;verticalAlign=top;html=1;outlineConnect=0;fontSize=11;" parent="1" vertex="1">
          <mxGeometry x="355" y="610" width="30" height="60" as="geometry" />
        </mxCell>
        <mxCell id="w7c0RXvmwf8TLFWMbkS8-17" value="" style="endArrow=classic;html=1;rounded=0;fontSize=11;entryX=0.5;entryY=1;entryDx=0;entryDy=0;exitX=0.5;exitY=0;exitDx=0;exitDy=0;exitPerimeter=0;" parent="1" source="w7c0RXvmwf8TLFWMbkS8-16" edge="1">
          <mxGeometry width="50" height="50" relative="1" as="geometry">
            <mxPoint x="344" y="650" as="sourcePoint" />
            <mxPoint x="370" y="560" as="targetPoint" />
          </mxGeometry>
        </mxCell>
        <mxCell id="w7c0RXvmwf8TLFWMbkS8-18" value="MongoDB" style="shape=umlActor;verticalLabelPosition=bottom;verticalAlign=top;html=1;outlineConnect=0;fontSize=11;" parent="1" vertex="1">
          <mxGeometry x="355" y="841" width="30" height="60" as="geometry" />
        </mxCell>
        <mxCell id="w7c0RXvmwf8TLFWMbkS8-19" value="" style="endArrow=classic;html=1;rounded=0;fontSize=11;entryX=0.5;entryY=1;entryDx=0;entryDy=0;exitX=0.5;exitY=0;exitDx=0;exitDy=0;exitPerimeter=0;" parent="1" source="w7c0RXvmwf8TLFWMbkS8-18" edge="1">
          <mxGeometry width="50" height="50" relative="1" as="geometry">
            <mxPoint x="344" y="881" as="sourcePoint" />
            <mxPoint x="370" y="791" as="targetPoint" />
          </mxGeometry>
        </mxCell>
        <mxCell id="w7c0RXvmwf8TLFWMbkS8-20" value="MongoDB" style="shape=umlActor;verticalLabelPosition=bottom;verticalAlign=top;html=1;outlineConnect=0;fontSize=11;" parent="1" vertex="1">
          <mxGeometry x="570" y="979" width="30" height="60" as="geometry" />
        </mxCell>
        <mxCell id="w7c0RXvmwf8TLFWMbkS8-22" value="" style="endArrow=classic;html=1;rounded=0;entryX=1;entryY=0.5;entryDx=0;entryDy=0;" parent="1" target="hTEOKCXMbIrAF3QXcVuG-72" edge="1">
          <mxGeometry width="50" height="50" relative="1" as="geometry">
            <mxPoint x="550" y="1010" as="sourcePoint" />
            <mxPoint x="590" y="990" as="targetPoint" />
          </mxGeometry>
        </mxCell>
        <mxCell id="w7c0RXvmwf8TLFWMbkS8-23" value="se il contenuto non è nei visti, viene aggiunto ai visti" style="text;html=1;align=center;verticalAlign=middle;resizable=0;points=[];autosize=1;strokeColor=none;fillColor=none;" parent="1" vertex="1">
          <mxGeometry x="590" y="835" width="300" height="30" as="geometry" />
        </mxCell>
        <mxCell id="CcQi5LQq_KAuk-9KLpOV-1" value="" style="endArrow=classic;html=1;rounded=0;dashed=1;" edge="1" parent="1">
          <mxGeometry width="50" height="50" relative="1" as="geometry">
            <mxPoint x="620" y="49.75999999999999" as="sourcePoint" />
            <mxPoint x="696" y="50" as="targetPoint" />
          </mxGeometry>
        </mxCell>
        <mxCell id="CcQi5LQq_KAuk-9KLpOV-2" value="&lt;font style=&quot;font-size: 10px;&quot;&gt;&amp;lt;include&amp;gt;&lt;/font&gt;" style="text;html=1;align=center;verticalAlign=middle;resizable=0;points=[];autosize=1;strokeColor=none;fillColor=none;" vertex="1" parent="1">
          <mxGeometry x="621" y="25" width="70" height="30" as="geometry" />
        </mxCell>
        <mxCell id="CcQi5LQq_KAuk-9KLpOV-3" value="&lt;span style=&quot;font-size: 12px;&quot;&gt;selezionare dal menù a tendina &quot;compila form preferenze&quot;&lt;/span&gt;" style="ellipse;whiteSpace=wrap;html=1;fontSize=10;" vertex="1" parent="1">
          <mxGeometry x="696" y="10" width="134" height="80" as="geometry" />
        </mxCell>
        <mxCell id="CcQi5LQq_KAuk-9KLpOV-4" value="" style="endArrow=classic;html=1;rounded=0;dashed=1;" edge="1" parent="1">
          <mxGeometry width="50" height="50" relative="1" as="geometry">
            <mxPoint x="830" y="49.75999999999999" as="sourcePoint" />
            <mxPoint x="905.9999999999998" y="50" as="targetPoint" />
          </mxGeometry>
        </mxCell>
        <mxCell id="CcQi5LQq_KAuk-9KLpOV-5" value="&lt;font style=&quot;font-size: 10px;&quot;&gt;&amp;lt;include&amp;gt;&lt;/font&gt;" style="text;html=1;align=center;verticalAlign=middle;resizable=0;points=[];autosize=1;strokeColor=none;fillColor=none;" vertex="1" parent="1">
          <mxGeometry x="831" y="25" width="70" height="30" as="geometry" />
        </mxCell>
        <mxCell id="CcQi5LQq_KAuk-9KLpOV-6" value="&lt;font style=&quot;font-size: 12px;&quot;&gt;rispondere alle domande a video&lt;/font&gt;" style="ellipse;whiteSpace=wrap;html=1;fontSize=10;" vertex="1" parent="1">
          <mxGeometry x="906" y="10" width="120" height="80" as="geometry" />
        </mxCell>
        <mxCell id="CcQi5LQq_KAuk-9KLpOV-7" value="" style="endArrow=classic;html=1;rounded=0;dashed=1;fontSize=12;entryX=0.589;entryY=1.01;entryDx=0;entryDy=0;entryPerimeter=0;" edge="1" parent="1">
          <mxGeometry width="50" height="50" relative="1" as="geometry">
            <mxPoint x="700" y="139.2" as="sourcePoint" />
            <mxPoint x="560.6800000000001" y="90.00000000000006" as="targetPoint" />
            <Array as="points">
              <mxPoint x="560" y="139.2" />
            </Array>
          </mxGeometry>
        </mxCell>
        <mxCell id="CcQi5LQq_KAuk-9KLpOV-8" value="&amp;nbsp;Al primo accesso al proprio profilo, l&#39;utente viene reindirizzato automaticamente alla compilazione del form preferenze" style="ellipse;whiteSpace=wrap;html=1;fontSize=12;" vertex="1" parent="1">
          <mxGeometry x="700" y="100.2" width="250" height="89.8" as="geometry" />
        </mxCell>
        <mxCell id="CcQi5LQq_KAuk-9KLpOV-9" value="&lt;span style=&quot;color: rgb(0, 0, 0); font-family: Helvetica; font-size: 12px; font-style: normal; font-variant-ligatures: normal; font-variant-caps: normal; font-weight: 400; letter-spacing: normal; orphans: 2; text-align: center; text-indent: 0px; text-transform: none; widows: 2; word-spacing: 0px; -webkit-text-stroke-width: 0px; background-color: rgb(248, 249, 250); text-decoration-thickness: initial; text-decoration-style: initial; text-decoration-color: initial; float: none; display: inline !important;&quot;&gt;&amp;lt;extends&amp;gt;&lt;/span&gt;" style="text;whiteSpace=wrap;html=1;fontSize=12;" vertex="1" parent="1">
          <mxGeometry x="600" y="109.19999999999999" width="90" height="40" as="geometry" />
        </mxCell>
      </root>
    </mxGraphModel>
  </diagram>
</mxfile>
